<svg xmlns="http://www.w3.org/2000/svg" height="42" viewBox="0 96 960 960" width="32"><path fill="white" d="m436.5 698 106-106 106 106 17-16-107-106 106-106-16-16-106 106-106-106-16 16 106 106-106 106 16 16Zm-258-122 133-188q11.833-19 31.589-29.5t43.477-10.5H728.5q21.75 0 37.875 16.125T782.5 402v348q0 21.75-16.125 37.875T728.5 804H386.881q-23.381 0-43.001-11.5Q324.261 781 311.5 762l-133-186Zm27 0 128.092 180q8 11 21.25 18.5t28.75 7.5H728.5q12 0 22-10t10-22V402q0-12-10-22t-22-10h-345q-15.5 0-28.75 7.5T333.5 396l-128 180Zm555 0V370v412-206Z"/></svg>